<svg width="24" height="24" viewBox="0 0 24 24" fill="none" xmlns="http://www.w3.org/2000/svg">
<path d="M23.6026 3.36342L20.5912 0.380794C20.3324 0.136361 19.9885 0 19.6309 0C19.2732 0 18.9293 0.136361 18.6705 0.380794L15.9928 3.04098H1.62777C1.19606 3.04098 0.782027 3.21084 0.476762 3.51319C0.171496 3.81554 0 4.22562 0 4.65321V22.3878C0 22.8154 0.171496 23.2254 0.476762 23.5278C0.782027 23.8301 1.19606 24 1.62777 24H19.5332C19.9649 24 20.3789 23.8301 20.6842 23.5278C20.9895 23.2254 21.161 22.8154 21.161 22.3878V7.68421L23.6026 5.26586C23.8571 5.01345 24 4.67134 24 4.31464C24 3.95795 23.8571 3.61583 23.6026 3.36342ZM12.0699 14.4314L8.65972 15.1811L9.4736 11.8357L17.2462 4.12117L19.875 6.72493L12.0699 14.4314ZM20.754 5.80596L18.1252 3.2022L19.6309 1.71089L22.2597 4.31464L20.754 5.80596Z" fill="white"/>
</svg>
